<mxfile host="Electron" modified="2023-10-28T09:56:28.747Z" agent="Mozilla/5.0 (Windows NT 10.0; Win64; x64) AppleWebKit/537.36 (KHTML, like Gecko) draw.io/22.0.0 Chrome/114.0.5735.289 Electron/25.8.3 Safari/537.36" etag="dJAi9adUf_mSSmmqDfqO" version="22.0.0" type="device">
  <diagram name="Страница — 1" id="OFkjJMPrs0O_vb34kiXz">
    <mxGraphModel dx="-843" dy="577" grid="0" gridSize="10" guides="1" tooltips="1" connect="1" arrows="1" fold="1" page="0" pageScale="1" pageWidth="827" pageHeight="1169" math="0" shadow="0">
      <root>
        <mxCell id="0" />
        <mxCell id="1" parent="0" />
        <mxCell id="RB9qQkZ6Mr-YbvBWjPKB-1" value="15" style="ellipse;whiteSpace=wrap;html=1;fontColor=#009999;strokeColor=#009999;" vertex="1" parent="1">
          <mxGeometry x="1875.7399999999998" y="267.3900000000001" width="30" height="30" as="geometry" />
        </mxCell>
        <mxCell id="RB9qQkZ6Mr-YbvBWjPKB-2" style="edgeStyle=none;shape=connector;rounded=0;orthogonalLoop=1;jettySize=auto;html=1;labelBackgroundColor=none;strokeColor=#009999;align=center;verticalAlign=middle;fontFamily=Helvetica;fontSize=11;fontColor=#009999;endArrow=blockThin;endFill=1;" edge="1" parent="1" source="RB9qQkZ6Mr-YbvBWjPKB-8" target="RB9qQkZ6Mr-YbvBWjPKB-1">
          <mxGeometry relative="1" as="geometry">
            <mxPoint x="1849.7400000000198" y="282.3900000000001" as="sourcePoint" />
            <mxPoint x="1895.7399999999998" y="320.16999999999985" as="targetPoint" />
          </mxGeometry>
        </mxCell>
        <mxCell id="RB9qQkZ6Mr-YbvBWjPKB-3" value="a" style="edgeLabel;html=1;align=center;verticalAlign=middle;resizable=0;points=[];fontSize=11;fontFamily=Helvetica;fontColor=#009999;" vertex="1" connectable="0" parent="RB9qQkZ6Mr-YbvBWjPKB-2">
          <mxGeometry x="-0.107" y="2" relative="1" as="geometry">
            <mxPoint x="1" y="-8" as="offset" />
          </mxGeometry>
        </mxCell>
        <mxCell id="RB9qQkZ6Mr-YbvBWjPKB-4" style="edgeStyle=none;shape=connector;rounded=0;orthogonalLoop=1;jettySize=auto;html=1;labelBackgroundColor=none;strokeColor=#009999;align=center;verticalAlign=middle;fontFamily=Helvetica;fontSize=11;fontColor=#009999;endArrow=blockThin;endFill=1;" edge="1" parent="1" source="RB9qQkZ6Mr-YbvBWjPKB-1" target="RB9qQkZ6Mr-YbvBWjPKB-1">
          <mxGeometry relative="1" as="geometry">
            <mxPoint x="1882.7399999999998" y="325.16999999999985" as="sourcePoint" />
            <mxPoint x="1908.7399999999998" y="325.16999999999985" as="targetPoint" />
            <Array as="points">
              <mxPoint x="1872.7399999999998" y="324.78" />
              <mxPoint x="1908.7399999999998" y="324.78" />
            </Array>
          </mxGeometry>
        </mxCell>
        <mxCell id="RB9qQkZ6Mr-YbvBWjPKB-5" value="a" style="edgeLabel;html=1;align=center;verticalAlign=middle;resizable=0;points=[];fontSize=11;fontFamily=Helvetica;fontColor=#009999;" vertex="1" connectable="0" parent="RB9qQkZ6Mr-YbvBWjPKB-4">
          <mxGeometry x="-0.107" y="2" relative="1" as="geometry">
            <mxPoint x="5" y="-6" as="offset" />
          </mxGeometry>
        </mxCell>
        <mxCell id="RB9qQkZ6Mr-YbvBWjPKB-6" style="edgeStyle=none;shape=connector;rounded=0;orthogonalLoop=1;jettySize=auto;html=1;labelBackgroundColor=none;strokeColor=#009999;align=center;verticalAlign=middle;fontFamily=Helvetica;fontSize=11;fontColor=#009999;endArrow=blockThin;endFill=1;" edge="1" parent="1" source="RB9qQkZ6Mr-YbvBWjPKB-1" target="RB9qQkZ6Mr-YbvBWjPKB-23">
          <mxGeometry relative="1" as="geometry">
            <mxPoint x="1855.7399999999998" y="315.38999999999965" as="sourcePoint" />
            <mxPoint x="1858.740000000028" y="290.6099999999999" as="targetPoint" />
          </mxGeometry>
        </mxCell>
        <mxCell id="RB9qQkZ6Mr-YbvBWjPKB-7" value="b" style="edgeLabel;html=1;align=center;verticalAlign=middle;resizable=0;points=[];fontSize=11;fontFamily=Helvetica;fontColor=#009999;" vertex="1" connectable="0" parent="RB9qQkZ6Mr-YbvBWjPKB-6">
          <mxGeometry x="-0.107" y="2" relative="1" as="geometry">
            <mxPoint x="1" y="-8" as="offset" />
          </mxGeometry>
        </mxCell>
        <mxCell id="RB9qQkZ6Mr-YbvBWjPKB-8" value="14" style="ellipse;whiteSpace=wrap;html=1;fontColor=#009999;strokeColor=#009999;" vertex="1" parent="1">
          <mxGeometry x="1822.7399999999998" y="267.3900000000001" width="30" height="30" as="geometry" />
        </mxCell>
        <mxCell id="RB9qQkZ6Mr-YbvBWjPKB-9" style="edgeStyle=none;shape=connector;rounded=0;orthogonalLoop=1;jettySize=auto;html=1;labelBackgroundColor=none;strokeColor=#009999;align=center;verticalAlign=middle;fontFamily=Helvetica;fontSize=11;fontColor=#009999;endArrow=blockThin;endFill=1;" edge="1" parent="1" source="RB9qQkZ6Mr-YbvBWjPKB-96" target="RB9qQkZ6Mr-YbvBWjPKB-8">
          <mxGeometry relative="1" as="geometry">
            <mxPoint x="1796.7399999999998" y="282.39000000000055" as="sourcePoint" />
            <mxPoint x="1842.7399999999998" y="320.16999999999985" as="targetPoint" />
          </mxGeometry>
        </mxCell>
        <mxCell id="RB9qQkZ6Mr-YbvBWjPKB-10" value="a" style="edgeLabel;html=1;align=center;verticalAlign=middle;resizable=0;points=[];fontSize=11;fontFamily=Helvetica;fontColor=#009999;" vertex="1" connectable="0" parent="RB9qQkZ6Mr-YbvBWjPKB-9">
          <mxGeometry x="-0.107" y="2" relative="1" as="geometry">
            <mxPoint x="1" y="-8" as="offset" />
          </mxGeometry>
        </mxCell>
        <mxCell id="RB9qQkZ6Mr-YbvBWjPKB-11" style="edgeStyle=none;shape=connector;rounded=0;orthogonalLoop=1;jettySize=auto;html=1;labelBackgroundColor=none;strokeColor=#009999;align=center;verticalAlign=middle;fontFamily=Helvetica;fontSize=11;fontColor=#009999;endArrow=blockThin;endFill=1;" edge="1" parent="1" source="RB9qQkZ6Mr-YbvBWjPKB-96" target="RB9qQkZ6Mr-YbvBWjPKB-23">
          <mxGeometry relative="1" as="geometry">
            <mxPoint x="1793.0865883403685" y="292.2009598431762" as="sourcePoint" />
            <mxPoint x="1875.7399999999998" y="307.6099999999999" as="targetPoint" />
            <Array as="points">
              <mxPoint x="1839.7399999999998" y="332.3900000000001" />
              <mxPoint x="1925.7399999999998" y="332.3900000000001" />
            </Array>
          </mxGeometry>
        </mxCell>
        <mxCell id="RB9qQkZ6Mr-YbvBWjPKB-12" value="b" style="edgeLabel;html=1;align=center;verticalAlign=middle;resizable=0;points=[];fontSize=11;fontFamily=Helvetica;fontColor=#009999;" vertex="1" connectable="0" parent="RB9qQkZ6Mr-YbvBWjPKB-11">
          <mxGeometry x="0.0634" y="-1" relative="1" as="geometry">
            <mxPoint x="-3" y="9" as="offset" />
          </mxGeometry>
        </mxCell>
        <mxCell id="RB9qQkZ6Mr-YbvBWjPKB-13" style="edgeStyle=none;shape=connector;rounded=0;orthogonalLoop=1;jettySize=auto;html=1;labelBackgroundColor=none;strokeColor=#009999;align=center;verticalAlign=middle;fontFamily=Helvetica;fontSize=11;fontColor=#009999;endArrow=blockThin;endFill=1;exitX=1;exitY=0;exitDx=0;exitDy=0;entryX=0;entryY=0;entryDx=0;entryDy=0;" edge="1" parent="1" source="RB9qQkZ6Mr-YbvBWjPKB-15" target="RB9qQkZ6Mr-YbvBWjPKB-16">
          <mxGeometry relative="1" as="geometry" />
        </mxCell>
        <mxCell id="RB9qQkZ6Mr-YbvBWjPKB-14" value="a" style="edgeLabel;html=1;align=center;verticalAlign=middle;resizable=0;points=[];fontSize=11;fontFamily=Helvetica;fontColor=#009999;" vertex="1" connectable="0" parent="RB9qQkZ6Mr-YbvBWjPKB-13">
          <mxGeometry x="0.0634" y="-1" relative="1" as="geometry">
            <mxPoint x="-3" y="-11" as="offset" />
          </mxGeometry>
        </mxCell>
        <mxCell id="RB9qQkZ6Mr-YbvBWjPKB-15" value="19" style="ellipse;whiteSpace=wrap;html=1;fontColor=#009999;strokeColor=#009999;" vertex="1" parent="1">
          <mxGeometry x="2101.74" y="267.3599999999999" width="30" height="30" as="geometry" />
        </mxCell>
        <mxCell id="RB9qQkZ6Mr-YbvBWjPKB-16" value="20" style="ellipse;whiteSpace=wrap;html=1;fontColor=#009999;strokeColor=#009999;strokeWidth=4;perimeterSpacing=2;" vertex="1" parent="1">
          <mxGeometry x="2172.74" y="267.3599999999999" width="30" height="30" as="geometry" />
        </mxCell>
        <mxCell id="RB9qQkZ6Mr-YbvBWjPKB-17" style="edgeStyle=none;shape=connector;rounded=0;orthogonalLoop=1;jettySize=auto;html=1;labelBackgroundColor=none;strokeColor=#009999;align=center;verticalAlign=middle;fontFamily=Helvetica;fontSize=11;fontColor=#009999;endArrow=blockThin;endFill=1;exitX=1;exitY=1;exitDx=0;exitDy=0;entryX=0;entryY=1;entryDx=0;entryDy=0;" edge="1" parent="1" source="RB9qQkZ6Mr-YbvBWjPKB-15" target="RB9qQkZ6Mr-YbvBWjPKB-16">
          <mxGeometry relative="1" as="geometry">
            <mxPoint x="2132.129999999999" y="318.9699999999996" as="sourcePoint" />
            <mxPoint x="2181.129999999999" y="318.9699999999996" as="targetPoint" />
          </mxGeometry>
        </mxCell>
        <mxCell id="RB9qQkZ6Mr-YbvBWjPKB-18" value="b" style="edgeLabel;html=1;align=center;verticalAlign=middle;resizable=0;points=[];fontSize=11;fontFamily=Helvetica;fontColor=#009999;" vertex="1" connectable="0" parent="RB9qQkZ6Mr-YbvBWjPKB-17">
          <mxGeometry x="0.0634" y="-1" relative="1" as="geometry">
            <mxPoint x="-3" y="6" as="offset" />
          </mxGeometry>
        </mxCell>
        <mxCell id="RB9qQkZ6Mr-YbvBWjPKB-19" style="edgeStyle=none;shape=connector;rounded=0;orthogonalLoop=1;jettySize=auto;html=1;labelBackgroundColor=none;strokeColor=#009999;align=center;verticalAlign=middle;fontFamily=Helvetica;fontSize=11;fontColor=#009999;endArrow=blockThin;endFill=1;" edge="1" parent="1" source="RB9qQkZ6Mr-YbvBWjPKB-15" target="RB9qQkZ6Mr-YbvBWjPKB-16">
          <mxGeometry relative="1" as="geometry">
            <mxPoint x="2136.74" y="331.8399999999999" as="sourcePoint" />
            <mxPoint x="2185.3499999999995" y="331.7099999999998" as="targetPoint" />
          </mxGeometry>
        </mxCell>
        <mxCell id="RB9qQkZ6Mr-YbvBWjPKB-20" value="ε" style="edgeLabel;html=1;align=center;verticalAlign=middle;resizable=0;points=[];fontSize=11;fontFamily=Helvetica;fontColor=#009999;" vertex="1" connectable="0" parent="RB9qQkZ6Mr-YbvBWjPKB-19">
          <mxGeometry x="0.0634" y="-1" relative="1" as="geometry">
            <mxPoint x="-4" y="-2" as="offset" />
          </mxGeometry>
        </mxCell>
        <mxCell id="RB9qQkZ6Mr-YbvBWjPKB-21" style="edgeStyle=none;shape=connector;rounded=0;orthogonalLoop=1;jettySize=auto;html=1;labelBackgroundColor=none;strokeColor=#009999;align=center;verticalAlign=middle;fontFamily=Helvetica;fontSize=11;fontColor=#009999;endArrow=blockThin;endFill=1;exitX=1;exitY=0;exitDx=0;exitDy=0;entryX=0;entryY=0;entryDx=0;entryDy=0;" edge="1" parent="1" source="RB9qQkZ6Mr-YbvBWjPKB-23" target="RB9qQkZ6Mr-YbvBWjPKB-24">
          <mxGeometry relative="1" as="geometry" />
        </mxCell>
        <mxCell id="RB9qQkZ6Mr-YbvBWjPKB-22" value="a" style="edgeLabel;html=1;align=center;verticalAlign=middle;resizable=0;points=[];fontSize=11;fontFamily=Helvetica;fontColor=#009999;" vertex="1" connectable="0" parent="RB9qQkZ6Mr-YbvBWjPKB-21">
          <mxGeometry x="0.0634" y="-1" relative="1" as="geometry">
            <mxPoint x="-3" y="-11" as="offset" />
          </mxGeometry>
        </mxCell>
        <mxCell id="RB9qQkZ6Mr-YbvBWjPKB-23" value="16" style="ellipse;whiteSpace=wrap;html=1;fontColor=#009999;strokeColor=#009999;" vertex="1" parent="1">
          <mxGeometry x="1927.25" y="266.6099999999999" width="30" height="30" as="geometry" />
        </mxCell>
        <mxCell id="RB9qQkZ6Mr-YbvBWjPKB-24" value="17" style="ellipse;whiteSpace=wrap;html=1;fontColor=#009999;strokeColor=#009999;strokeWidth=1;perimeterSpacing=0;" vertex="1" parent="1">
          <mxGeometry x="1998.25" y="266.6099999999999" width="30" height="30" as="geometry" />
        </mxCell>
        <mxCell id="RB9qQkZ6Mr-YbvBWjPKB-25" style="edgeStyle=none;shape=connector;rounded=0;orthogonalLoop=1;jettySize=auto;html=1;labelBackgroundColor=none;strokeColor=#009999;align=center;verticalAlign=middle;fontFamily=Helvetica;fontSize=11;fontColor=#009999;endArrow=blockThin;endFill=1;exitX=1;exitY=1;exitDx=0;exitDy=0;entryX=0;entryY=1;entryDx=0;entryDy=0;" edge="1" parent="1" source="RB9qQkZ6Mr-YbvBWjPKB-23" target="RB9qQkZ6Mr-YbvBWjPKB-24">
          <mxGeometry relative="1" as="geometry">
            <mxPoint x="1957.6399999999994" y="318.2199999999996" as="sourcePoint" />
            <mxPoint x="2006.6399999999994" y="318.2199999999996" as="targetPoint" />
          </mxGeometry>
        </mxCell>
        <mxCell id="RB9qQkZ6Mr-YbvBWjPKB-26" value="b" style="edgeLabel;html=1;align=center;verticalAlign=middle;resizable=0;points=[];fontSize=11;fontFamily=Helvetica;fontColor=#009999;" vertex="1" connectable="0" parent="RB9qQkZ6Mr-YbvBWjPKB-25">
          <mxGeometry x="0.0634" y="-1" relative="1" as="geometry">
            <mxPoint x="-3" y="9" as="offset" />
          </mxGeometry>
        </mxCell>
        <mxCell id="RB9qQkZ6Mr-YbvBWjPKB-27" style="edgeStyle=none;shape=connector;rounded=0;orthogonalLoop=1;jettySize=auto;html=1;labelBackgroundColor=none;strokeColor=#009999;align=center;verticalAlign=middle;fontFamily=Helvetica;fontSize=11;fontColor=#009999;endArrow=blockThin;endFill=1;" edge="1" parent="1" source="RB9qQkZ6Mr-YbvBWjPKB-24" target="RB9qQkZ6Mr-YbvBWjPKB-31">
          <mxGeometry relative="1" as="geometry">
            <mxPoint x="2089.25000000002" y="281.6099999999999" as="sourcePoint" />
            <mxPoint x="2132.25" y="319.38999999999965" as="targetPoint" />
          </mxGeometry>
        </mxCell>
        <mxCell id="RB9qQkZ6Mr-YbvBWjPKB-28" value="a" style="edgeLabel;html=1;align=center;verticalAlign=middle;resizable=0;points=[];fontSize=11;fontFamily=Helvetica;fontColor=#009999;" vertex="1" connectable="0" parent="RB9qQkZ6Mr-YbvBWjPKB-27">
          <mxGeometry x="-0.107" y="2" relative="1" as="geometry">
            <mxPoint x="1" y="-8" as="offset" />
          </mxGeometry>
        </mxCell>
        <mxCell id="RB9qQkZ6Mr-YbvBWjPKB-29" style="edgeStyle=none;shape=connector;rounded=0;orthogonalLoop=1;jettySize=auto;html=1;labelBackgroundColor=none;strokeColor=#009999;align=center;verticalAlign=middle;fontFamily=Helvetica;fontSize=11;fontColor=#009999;endArrow=blockThin;endFill=1;" edge="1" parent="1" source="RB9qQkZ6Mr-YbvBWjPKB-31" target="RB9qQkZ6Mr-YbvBWjPKB-15">
          <mxGeometry relative="1" as="geometry">
            <mxPoint x="2105.25021249606" y="281.69499893751913" as="targetPoint" />
          </mxGeometry>
        </mxCell>
        <mxCell id="RB9qQkZ6Mr-YbvBWjPKB-30" value="b" style="edgeLabel;html=1;align=center;verticalAlign=middle;resizable=0;points=[];fontSize=11;fontFamily=Helvetica;fontColor=#009999;labelBackgroundColor=none;" vertex="1" connectable="0" parent="RB9qQkZ6Mr-YbvBWjPKB-29">
          <mxGeometry x="-0.0521" relative="1" as="geometry">
            <mxPoint x="-1" y="-9" as="offset" />
          </mxGeometry>
        </mxCell>
        <mxCell id="RB9qQkZ6Mr-YbvBWjPKB-31" value="18" style="ellipse;whiteSpace=wrap;html=1;fontColor=#009999;strokeColor=#009999;" vertex="1" parent="1">
          <mxGeometry x="2049.25" y="266.6099999999999" width="30" height="30" as="geometry" />
        </mxCell>
        <mxCell id="RB9qQkZ6Mr-YbvBWjPKB-32" style="edgeStyle=none;shape=connector;rounded=0;orthogonalLoop=1;jettySize=auto;html=1;labelBackgroundColor=none;strokeColor=#009999;align=center;verticalAlign=middle;fontFamily=Helvetica;fontSize=11;fontColor=#009999;endArrow=blockThin;endFill=1;" edge="1" parent="1" source="RB9qQkZ6Mr-YbvBWjPKB-31" target="RB9qQkZ6Mr-YbvBWjPKB-31">
          <mxGeometry relative="1" as="geometry">
            <mxPoint x="2056.25" y="324.38999999999965" as="sourcePoint" />
            <mxPoint x="2082.25" y="324.38999999999965" as="targetPoint" />
            <Array as="points">
              <mxPoint x="2046.25" y="324.0000000000002" />
              <mxPoint x="2082.25" y="324.0000000000002" />
            </Array>
          </mxGeometry>
        </mxCell>
        <mxCell id="RB9qQkZ6Mr-YbvBWjPKB-33" value="a" style="edgeLabel;html=1;align=center;verticalAlign=middle;resizable=0;points=[];fontSize=11;fontFamily=Helvetica;fontColor=#009999;" vertex="1" connectable="0" parent="RB9qQkZ6Mr-YbvBWjPKB-32">
          <mxGeometry x="-0.107" y="2" relative="1" as="geometry">
            <mxPoint x="5" y="-6" as="offset" />
          </mxGeometry>
        </mxCell>
        <mxCell id="RB9qQkZ6Mr-YbvBWjPKB-34" style="edgeStyle=none;shape=connector;rounded=0;orthogonalLoop=1;jettySize=auto;html=1;labelBackgroundColor=none;strokeColor=#009999;align=center;verticalAlign=middle;fontFamily=Helvetica;fontSize=11;fontColor=#009999;endArrow=blockThin;endFill=1;" edge="1" parent="1" source="RB9qQkZ6Mr-YbvBWjPKB-23" target="RB9qQkZ6Mr-YbvBWjPKB-15">
          <mxGeometry relative="1" as="geometry">
            <mxPoint x="1962.25" y="366.8599999999999" as="sourcePoint" />
            <mxPoint x="2122.8791982284456" y="298.5983521680116" as="targetPoint" />
            <Array as="points">
              <mxPoint x="1943.25" y="327.6099999999999" />
              <mxPoint x="2124.25" y="328.6099999999999" />
            </Array>
          </mxGeometry>
        </mxCell>
        <mxCell id="RB9qQkZ6Mr-YbvBWjPKB-35" value="a" style="edgeLabel;html=1;align=center;verticalAlign=middle;resizable=0;points=[];fontSize=11;fontFamily=Helvetica;fontColor=#009999;" vertex="1" connectable="0" parent="RB9qQkZ6Mr-YbvBWjPKB-34">
          <mxGeometry x="0.0634" y="-1" relative="1" as="geometry">
            <mxPoint x="-3" y="6" as="offset" />
          </mxGeometry>
        </mxCell>
        <mxCell id="RB9qQkZ6Mr-YbvBWjPKB-36" style="edgeStyle=none;shape=connector;rounded=0;orthogonalLoop=1;jettySize=auto;html=1;labelBackgroundColor=none;strokeColor=#009999;align=center;verticalAlign=middle;fontFamily=Helvetica;fontSize=11;fontColor=#009999;endArrow=blockThin;endFill=1;" edge="1" parent="1" source="RB9qQkZ6Mr-YbvBWjPKB-96" target="RB9qQkZ6Mr-YbvBWjPKB-16">
          <mxGeometry relative="1" as="geometry">
            <mxPoint x="1790.9979569521079" y="294.1921283282593" as="sourcePoint" />
            <mxPoint x="1993.7399999999998" y="381.8399999999999" as="targetPoint" />
            <Array as="points">
              <mxPoint x="1838.7399999999998" y="355.3900000000001" />
              <mxPoint x="2136.74" y="355.3900000000001" />
            </Array>
          </mxGeometry>
        </mxCell>
        <mxCell id="RB9qQkZ6Mr-YbvBWjPKB-37" value="a" style="edgeLabel;html=1;align=center;verticalAlign=middle;resizable=0;points=[];fontSize=11;fontFamily=Helvetica;fontColor=#009999;" vertex="1" connectable="0" parent="RB9qQkZ6Mr-YbvBWjPKB-36">
          <mxGeometry x="0.0634" y="-1" relative="1" as="geometry">
            <mxPoint x="-3" y="9" as="offset" />
          </mxGeometry>
        </mxCell>
        <mxCell id="RB9qQkZ6Mr-YbvBWjPKB-38" value="4" style="ellipse;whiteSpace=wrap;html=1;fontColor=#990099;strokeColor=#990099;" vertex="1" parent="1">
          <mxGeometry x="1730.0100000000002" y="345.45000000000005" width="30" height="30" as="geometry" />
        </mxCell>
        <mxCell id="RB9qQkZ6Mr-YbvBWjPKB-39" style="edgeStyle=none;shape=connector;rounded=0;orthogonalLoop=1;jettySize=auto;html=1;labelBackgroundColor=none;strokeColor=#990099;align=center;verticalAlign=middle;fontFamily=Helvetica;fontSize=11;fontColor=#990099;endArrow=blockThin;endFill=1;" edge="1" parent="1" source="RB9qQkZ6Mr-YbvBWjPKB-41" target="RB9qQkZ6Mr-YbvBWjPKB-38">
          <mxGeometry relative="1" as="geometry">
            <mxPoint x="1752.380000000021" y="235.7900000000002" as="sourcePoint" />
            <mxPoint x="1798.3800000000006" y="273.56999999999994" as="targetPoint" />
          </mxGeometry>
        </mxCell>
        <mxCell id="RB9qQkZ6Mr-YbvBWjPKB-40" value="a" style="edgeLabel;html=1;align=center;verticalAlign=middle;resizable=0;points=[];fontSize=11;fontFamily=Helvetica;fontColor=#990099;" vertex="1" connectable="0" parent="RB9qQkZ6Mr-YbvBWjPKB-39">
          <mxGeometry x="-0.107" y="2" relative="1" as="geometry">
            <mxPoint x="1" y="-8" as="offset" />
          </mxGeometry>
        </mxCell>
        <mxCell id="RB9qQkZ6Mr-YbvBWjPKB-41" value="3" style="ellipse;whiteSpace=wrap;html=1;fontColor=#990099;strokeColor=#990099;" vertex="1" parent="1">
          <mxGeometry x="1687.5100000000007" y="291.45000000000005" width="30" height="30" as="geometry" />
        </mxCell>
        <mxCell id="RB9qQkZ6Mr-YbvBWjPKB-42" style="edgeStyle=none;shape=connector;rounded=0;orthogonalLoop=1;jettySize=auto;html=1;labelBackgroundColor=none;strokeColor=#990099;align=center;verticalAlign=middle;fontFamily=Helvetica;fontSize=11;fontColor=#990099;endArrow=blockThin;endFill=1;exitX=0;exitY=0.5;exitDx=0;exitDy=0;" edge="1" parent="1" source="RB9qQkZ6Mr-YbvBWjPKB-96" target="RB9qQkZ6Mr-YbvBWjPKB-41">
          <mxGeometry relative="1" as="geometry">
            <mxPoint x="1700.8700000000454" y="182.81999999999994" as="sourcePoint" />
            <mxPoint x="1766.8700000000003" y="273.5999999999997" as="targetPoint" />
          </mxGeometry>
        </mxCell>
        <mxCell id="RB9qQkZ6Mr-YbvBWjPKB-43" value="a" style="edgeLabel;html=1;align=center;verticalAlign=middle;resizable=0;points=[];fontSize=11;fontFamily=Helvetica;fontColor=#990099;" vertex="1" connectable="0" parent="RB9qQkZ6Mr-YbvBWjPKB-42">
          <mxGeometry x="-0.107" y="2" relative="1" as="geometry">
            <mxPoint x="-10" y="-2" as="offset" />
          </mxGeometry>
        </mxCell>
        <mxCell id="RB9qQkZ6Mr-YbvBWjPKB-44" style="edgeStyle=none;shape=connector;rounded=0;orthogonalLoop=1;jettySize=auto;html=1;labelBackgroundColor=none;strokeColor=#990099;align=center;verticalAlign=middle;fontFamily=Helvetica;fontSize=11;fontColor=#990099;endArrow=blockThin;endFill=1;" edge="1" parent="1" source="RB9qQkZ6Mr-YbvBWjPKB-38" target="RB9qQkZ6Mr-YbvBWjPKB-96">
          <mxGeometry relative="1" as="geometry">
            <mxPoint x="1699.3700000000003" y="270.0000000000002" as="sourcePoint" />
            <mxPoint x="1883.2080509280568" y="146.89085102470221" as="targetPoint" />
          </mxGeometry>
        </mxCell>
        <mxCell id="RB9qQkZ6Mr-YbvBWjPKB-45" value="a" style="edgeLabel;html=1;align=center;verticalAlign=middle;resizable=0;points=[];fontSize=11;fontFamily=Helvetica;fontColor=#990099;labelBackgroundColor=none;" vertex="1" connectable="0" parent="RB9qQkZ6Mr-YbvBWjPKB-44">
          <mxGeometry x="-0.107" y="2" relative="1" as="geometry">
            <mxPoint x="-7" y="7" as="offset" />
          </mxGeometry>
        </mxCell>
        <mxCell id="RB9qQkZ6Mr-YbvBWjPKB-46" value="5" style="ellipse;whiteSpace=wrap;html=1;fontColor=#990099;strokeColor=#990099;" vertex="1" parent="1">
          <mxGeometry x="1776.0000000000005" y="324.45000000000005" width="30" height="30" as="geometry" />
        </mxCell>
        <mxCell id="RB9qQkZ6Mr-YbvBWjPKB-47" style="edgeStyle=none;shape=connector;rounded=0;orthogonalLoop=1;jettySize=auto;html=1;labelBackgroundColor=none;strokeColor=#990099;align=center;verticalAlign=middle;fontFamily=Helvetica;fontSize=11;fontColor=#990099;endArrow=blockThin;endFill=1;exitX=0;exitY=0;exitDx=0;exitDy=0;entryX=0;entryY=1;entryDx=0;entryDy=0;" edge="1" parent="1" source="RB9qQkZ6Mr-YbvBWjPKB-96" target="RB9qQkZ6Mr-YbvBWjPKB-46">
          <mxGeometry relative="1" as="geometry">
            <mxPoint x="1699.480148003182" y="189.12586007869436" as="sourcePoint" />
            <mxPoint x="1797.3700000000003" y="370.5999999999997" as="targetPoint" />
          </mxGeometry>
        </mxCell>
        <mxCell id="RB9qQkZ6Mr-YbvBWjPKB-48" value="a" style="edgeLabel;html=1;align=center;verticalAlign=middle;resizable=0;points=[];fontSize=11;fontFamily=Helvetica;fontColor=#990099;" vertex="1" connectable="0" parent="RB9qQkZ6Mr-YbvBWjPKB-47">
          <mxGeometry x="-0.107" y="2" relative="1" as="geometry">
            <mxPoint x="-2" y="10" as="offset" />
          </mxGeometry>
        </mxCell>
        <mxCell id="RB9qQkZ6Mr-YbvBWjPKB-49" style="edgeStyle=none;shape=connector;rounded=0;orthogonalLoop=1;jettySize=auto;html=1;labelBackgroundColor=none;strokeColor=#990099;align=center;verticalAlign=middle;fontFamily=Helvetica;fontSize=11;fontColor=#990099;endArrow=blockThin;endFill=1;" edge="1" parent="1" source="RB9qQkZ6Mr-YbvBWjPKB-46" target="RB9qQkZ6Mr-YbvBWjPKB-96">
          <mxGeometry relative="1" as="geometry">
            <mxPoint x="1676.8700000000003" y="367.0000000000002" as="sourcePoint" />
            <mxPoint x="1886.1100339386521" y="151.51313251554598" as="targetPoint" />
          </mxGeometry>
        </mxCell>
        <mxCell id="RB9qQkZ6Mr-YbvBWjPKB-50" value="b" style="edgeLabel;html=1;align=center;verticalAlign=middle;resizable=0;points=[];fontSize=11;fontFamily=Helvetica;fontColor=#990099;" vertex="1" connectable="0" parent="RB9qQkZ6Mr-YbvBWjPKB-49">
          <mxGeometry x="-0.107" y="2" relative="1" as="geometry">
            <mxPoint x="1" y="-8" as="offset" />
          </mxGeometry>
        </mxCell>
        <mxCell id="RB9qQkZ6Mr-YbvBWjPKB-51" value="7" style="ellipse;whiteSpace=wrap;html=1;fontColor=#990099;strokeColor=#990099;" vertex="1" parent="1">
          <mxGeometry x="1626.5" y="192.76000000000045" width="30" height="30" as="geometry" />
        </mxCell>
        <mxCell id="RB9qQkZ6Mr-YbvBWjPKB-52" style="edgeStyle=none;shape=connector;rounded=0;orthogonalLoop=1;jettySize=auto;html=1;labelBackgroundColor=none;strokeColor=#990099;align=center;verticalAlign=middle;fontFamily=Helvetica;fontSize=11;fontColor=#990099;endArrow=blockThin;endFill=1;" edge="1" parent="1" source="RB9qQkZ6Mr-YbvBWjPKB-58" target="RB9qQkZ6Mr-YbvBWjPKB-51">
          <mxGeometry relative="1" as="geometry">
            <mxPoint x="1544.5000000000205" y="158.7900000000002" as="sourcePoint" />
            <mxPoint x="1590.5" y="196.56999999999994" as="targetPoint" />
          </mxGeometry>
        </mxCell>
        <mxCell id="RB9qQkZ6Mr-YbvBWjPKB-53" value="a" style="edgeLabel;html=1;align=center;verticalAlign=middle;resizable=0;points=[];fontSize=11;fontFamily=Helvetica;fontColor=#990099;" vertex="1" connectable="0" parent="RB9qQkZ6Mr-YbvBWjPKB-52">
          <mxGeometry x="-0.107" y="2" relative="1" as="geometry">
            <mxPoint x="6" y="-8" as="offset" />
          </mxGeometry>
        </mxCell>
        <mxCell id="RB9qQkZ6Mr-YbvBWjPKB-54" style="edgeStyle=none;shape=connector;rounded=0;orthogonalLoop=1;jettySize=auto;html=1;labelBackgroundColor=none;strokeColor=#990099;align=center;verticalAlign=middle;fontFamily=Helvetica;fontSize=11;fontColor=#990099;endArrow=blockThin;endFill=1;" edge="1" parent="1" source="RB9qQkZ6Mr-YbvBWjPKB-51" target="RB9qQkZ6Mr-YbvBWjPKB-51">
          <mxGeometry relative="1" as="geometry">
            <mxPoint x="1633.5" y="250.5400000000002" as="sourcePoint" />
            <mxPoint x="1659.5" y="250.5400000000002" as="targetPoint" />
            <Array as="points">
              <mxPoint x="1623.5" y="250.14999999999986" />
              <mxPoint x="1659.5" y="250.14999999999986" />
            </Array>
          </mxGeometry>
        </mxCell>
        <mxCell id="RB9qQkZ6Mr-YbvBWjPKB-55" value="a" style="edgeLabel;html=1;align=center;verticalAlign=middle;resizable=0;points=[];fontSize=11;fontFamily=Helvetica;fontColor=#990099;" vertex="1" connectable="0" parent="RB9qQkZ6Mr-YbvBWjPKB-54">
          <mxGeometry x="-0.107" y="2" relative="1" as="geometry">
            <mxPoint x="5" y="-6" as="offset" />
          </mxGeometry>
        </mxCell>
        <mxCell id="RB9qQkZ6Mr-YbvBWjPKB-56" style="edgeStyle=none;shape=connector;rounded=0;orthogonalLoop=1;jettySize=auto;html=1;labelBackgroundColor=none;strokeColor=#990099;align=center;verticalAlign=middle;fontFamily=Helvetica;fontSize=11;fontColor=#990099;endArrow=blockThin;endFill=1;" edge="1" parent="1" source="RB9qQkZ6Mr-YbvBWjPKB-51" target="RB9qQkZ6Mr-YbvBWjPKB-65">
          <mxGeometry relative="1" as="geometry">
            <mxPoint x="1563.5" y="195.33000000000015" as="sourcePoint" />
            <mxPoint x="1566.500000000044" y="170.5500000000004" as="targetPoint" />
          </mxGeometry>
        </mxCell>
        <mxCell id="RB9qQkZ6Mr-YbvBWjPKB-57" value="b" style="edgeLabel;html=1;align=center;verticalAlign=middle;resizable=0;points=[];fontSize=11;fontFamily=Helvetica;fontColor=#990099;" vertex="1" connectable="0" parent="RB9qQkZ6Mr-YbvBWjPKB-56">
          <mxGeometry x="-0.107" y="2" relative="1" as="geometry">
            <mxPoint x="-5" y="1" as="offset" />
          </mxGeometry>
        </mxCell>
        <mxCell id="RB9qQkZ6Mr-YbvBWjPKB-58" value="6" style="ellipse;whiteSpace=wrap;html=1;fontColor=#990099;strokeColor=#990099;" vertex="1" parent="1">
          <mxGeometry x="1693" y="232.45000000000005" width="30" height="30" as="geometry" />
        </mxCell>
        <mxCell id="RB9qQkZ6Mr-YbvBWjPKB-59" style="edgeStyle=none;shape=connector;rounded=0;orthogonalLoop=1;jettySize=auto;html=1;labelBackgroundColor=none;strokeColor=#990099;align=center;verticalAlign=middle;fontFamily=Helvetica;fontSize=11;fontColor=#990099;endArrow=blockThin;endFill=1;" edge="1" parent="1" source="RB9qQkZ6Mr-YbvBWjPKB-96" target="RB9qQkZ6Mr-YbvBWjPKB-58">
          <mxGeometry relative="1" as="geometry">
            <mxPoint x="1680.0116704715797" y="201.07614433539698" as="sourcePoint" />
            <mxPoint x="1537.5" y="196.56999999999994" as="targetPoint" />
          </mxGeometry>
        </mxCell>
        <mxCell id="RB9qQkZ6Mr-YbvBWjPKB-60" value="a" style="edgeLabel;html=1;align=center;verticalAlign=middle;resizable=0;points=[];fontSize=11;fontFamily=Helvetica;fontColor=#990099;labelBackgroundColor=none;" vertex="1" connectable="0" parent="RB9qQkZ6Mr-YbvBWjPKB-59">
          <mxGeometry x="-0.107" y="2" relative="1" as="geometry">
            <mxPoint x="1" y="2" as="offset" />
          </mxGeometry>
        </mxCell>
        <mxCell id="RB9qQkZ6Mr-YbvBWjPKB-61" style="edgeStyle=none;shape=connector;rounded=0;orthogonalLoop=1;jettySize=auto;html=1;labelBackgroundColor=none;strokeColor=#990099;align=center;verticalAlign=middle;fontFamily=Helvetica;fontSize=11;fontColor=#990099;endArrow=blockThin;endFill=1;" edge="1" parent="1" source="RB9qQkZ6Mr-YbvBWjPKB-96" target="RB9qQkZ6Mr-YbvBWjPKB-65">
          <mxGeometry relative="1" as="geometry">
            <mxPoint x="1683.2887454875708" y="191.93986150446312" as="sourcePoint" />
            <mxPoint x="1583.5" y="187.5500000000004" as="targetPoint" />
          </mxGeometry>
        </mxCell>
        <mxCell id="RB9qQkZ6Mr-YbvBWjPKB-62" value="b" style="edgeLabel;html=1;align=center;verticalAlign=middle;resizable=0;points=[];fontSize=11;fontFamily=Helvetica;fontColor=#990099;labelBackgroundColor=none;" vertex="1" connectable="0" parent="RB9qQkZ6Mr-YbvBWjPKB-61">
          <mxGeometry x="0.0634" y="-1" relative="1" as="geometry">
            <mxPoint x="-1" y="6" as="offset" />
          </mxGeometry>
        </mxCell>
        <mxCell id="RB9qQkZ6Mr-YbvBWjPKB-63" style="edgeStyle=none;shape=connector;rounded=0;orthogonalLoop=1;jettySize=auto;html=1;labelBackgroundColor=none;strokeColor=#990099;align=center;verticalAlign=middle;fontFamily=Helvetica;fontSize=11;fontColor=#990099;endArrow=blockThin;endFill=1;exitX=0.5;exitY=0;exitDx=0;exitDy=0;" edge="1" parent="1" source="RB9qQkZ6Mr-YbvBWjPKB-65" target="RB9qQkZ6Mr-YbvBWjPKB-66">
          <mxGeometry relative="1" as="geometry" />
        </mxCell>
        <mxCell id="RB9qQkZ6Mr-YbvBWjPKB-64" value="a" style="edgeLabel;html=1;align=center;verticalAlign=middle;resizable=0;points=[];fontSize=11;fontFamily=Helvetica;fontColor=#990099;labelBackgroundColor=none;" vertex="1" connectable="0" parent="RB9qQkZ6Mr-YbvBWjPKB-63">
          <mxGeometry x="0.0634" y="-1" relative="1" as="geometry">
            <mxPoint x="4" y="-3" as="offset" />
          </mxGeometry>
        </mxCell>
        <mxCell id="RB9qQkZ6Mr-YbvBWjPKB-65" value="8" style="ellipse;whiteSpace=wrap;html=1;fontColor=#990099;strokeColor=#990099;" vertex="1" parent="1">
          <mxGeometry x="1707.4899999999998" y="192.75999999999954" width="30" height="30" as="geometry" />
        </mxCell>
        <mxCell id="RB9qQkZ6Mr-YbvBWjPKB-66" value="9" style="ellipse;whiteSpace=wrap;html=1;fontColor=#990099;strokeColor=#990099;strokeWidth=1;perimeterSpacing=0;" vertex="1" parent="1">
          <mxGeometry x="1674.0100000000002" y="143.75999999999954" width="30" height="30" as="geometry" />
        </mxCell>
        <mxCell id="RB9qQkZ6Mr-YbvBWjPKB-67" style="edgeStyle=none;shape=connector;rounded=0;orthogonalLoop=1;jettySize=auto;html=1;labelBackgroundColor=none;strokeColor=#990099;align=center;verticalAlign=middle;fontFamily=Helvetica;fontSize=11;fontColor=#990099;endArrow=blockThin;endFill=1;exitX=0;exitY=0;exitDx=0;exitDy=0;entryX=0.5;entryY=1;entryDx=0;entryDy=0;" edge="1" parent="1" source="RB9qQkZ6Mr-YbvBWjPKB-65" target="RB9qQkZ6Mr-YbvBWjPKB-66">
          <mxGeometry relative="1" as="geometry">
            <mxPoint x="1635.4" y="195.37000000000012" as="sourcePoint" />
            <mxPoint x="1684.4" y="195.37000000000012" as="targetPoint" />
          </mxGeometry>
        </mxCell>
        <mxCell id="RB9qQkZ6Mr-YbvBWjPKB-68" value="b" style="edgeLabel;html=1;align=center;verticalAlign=middle;resizable=0;points=[];fontSize=11;fontFamily=Helvetica;fontColor=#990099;labelBackgroundColor=none;" vertex="1" connectable="0" parent="RB9qQkZ6Mr-YbvBWjPKB-67">
          <mxGeometry x="0.0634" y="-1" relative="1" as="geometry">
            <mxPoint x="-3" y="7" as="offset" />
          </mxGeometry>
        </mxCell>
        <mxCell id="RB9qQkZ6Mr-YbvBWjPKB-69" style="edgeStyle=none;shape=connector;rounded=0;orthogonalLoop=1;jettySize=auto;html=1;labelBackgroundColor=none;strokeColor=#990099;align=center;verticalAlign=middle;fontFamily=Helvetica;fontSize=11;fontColor=#990099;endArrow=blockThin;endFill=1;" edge="1" parent="1" source="RB9qQkZ6Mr-YbvBWjPKB-66" target="RB9qQkZ6Mr-YbvBWjPKB-73">
          <mxGeometry relative="1" as="geometry">
            <mxPoint x="1767.0100000000207" y="158.76000000000045" as="sourcePoint" />
            <mxPoint x="1810.0100000000002" y="196.5400000000002" as="targetPoint" />
          </mxGeometry>
        </mxCell>
        <mxCell id="RB9qQkZ6Mr-YbvBWjPKB-70" value="a" style="edgeLabel;html=1;align=center;verticalAlign=middle;resizable=0;points=[];fontSize=11;fontFamily=Helvetica;fontColor=#990099;" vertex="1" connectable="0" parent="RB9qQkZ6Mr-YbvBWjPKB-69">
          <mxGeometry x="-0.107" y="2" relative="1" as="geometry">
            <mxPoint x="1" y="-8" as="offset" />
          </mxGeometry>
        </mxCell>
        <mxCell id="RB9qQkZ6Mr-YbvBWjPKB-71" style="edgeStyle=none;shape=connector;rounded=0;orthogonalLoop=1;jettySize=auto;html=1;labelBackgroundColor=none;strokeColor=#990099;align=center;verticalAlign=middle;fontFamily=Helvetica;fontSize=11;fontColor=#990099;endArrow=blockThin;endFill=1;" edge="1" parent="1" source="RB9qQkZ6Mr-YbvBWjPKB-73" target="RB9qQkZ6Mr-YbvBWjPKB-78">
          <mxGeometry relative="1" as="geometry" />
        </mxCell>
        <mxCell id="RB9qQkZ6Mr-YbvBWjPKB-72" value="b" style="edgeLabel;html=1;align=center;verticalAlign=middle;resizable=0;points=[];fontSize=11;fontFamily=Helvetica;fontColor=#990099;labelBackgroundColor=none;" vertex="1" connectable="0" parent="RB9qQkZ6Mr-YbvBWjPKB-71">
          <mxGeometry x="-0.0521" relative="1" as="geometry">
            <mxPoint x="-1" y="-9" as="offset" />
          </mxGeometry>
        </mxCell>
        <mxCell id="RB9qQkZ6Mr-YbvBWjPKB-73" value="10" style="ellipse;whiteSpace=wrap;html=1;fontColor=#990099;strokeColor=#990099;" vertex="1" parent="1">
          <mxGeometry x="1727.0100000000002" y="143.76000000000045" width="30" height="30" as="geometry" />
        </mxCell>
        <mxCell id="RB9qQkZ6Mr-YbvBWjPKB-74" style="edgeStyle=none;shape=connector;rounded=0;orthogonalLoop=1;jettySize=auto;html=1;labelBackgroundColor=none;strokeColor=#990099;align=center;verticalAlign=middle;fontFamily=Helvetica;fontSize=11;fontColor=#990099;endArrow=blockThin;endFill=1;" edge="1" parent="1" source="RB9qQkZ6Mr-YbvBWjPKB-73" target="RB9qQkZ6Mr-YbvBWjPKB-73">
          <mxGeometry relative="1" as="geometry">
            <mxPoint x="1734.0100000000002" y="201.5400000000002" as="sourcePoint" />
            <mxPoint x="1760.0100000000002" y="201.5400000000002" as="targetPoint" />
            <Array as="points">
              <mxPoint x="1725.0100000000002" y="127.00000000000023" />
              <mxPoint x="1759.0100000000002" y="127.00000000000023" />
            </Array>
          </mxGeometry>
        </mxCell>
        <mxCell id="RB9qQkZ6Mr-YbvBWjPKB-75" value="a" style="edgeLabel;html=1;align=center;verticalAlign=middle;resizable=0;points=[];fontSize=11;fontFamily=Helvetica;fontColor=#990099;" vertex="1" connectable="0" parent="RB9qQkZ6Mr-YbvBWjPKB-74">
          <mxGeometry x="-0.107" y="2" relative="1" as="geometry">
            <mxPoint x="5" y="-6" as="offset" />
          </mxGeometry>
        </mxCell>
        <mxCell id="RB9qQkZ6Mr-YbvBWjPKB-76" style="edgeStyle=none;shape=connector;rounded=0;orthogonalLoop=1;jettySize=auto;html=1;labelBackgroundColor=none;strokeColor=#990099;align=center;verticalAlign=middle;fontFamily=Helvetica;fontSize=11;fontColor=#990099;endArrow=blockThin;endFill=1;" edge="1" parent="1" source="RB9qQkZ6Mr-YbvBWjPKB-65" target="RB9qQkZ6Mr-YbvBWjPKB-78">
          <mxGeometry relative="1" as="geometry">
            <mxPoint x="1640.0100000000002" y="244.01" as="sourcePoint" />
            <mxPoint x="1805.0100000000002" y="246.01" as="targetPoint" />
          </mxGeometry>
        </mxCell>
        <mxCell id="RB9qQkZ6Mr-YbvBWjPKB-77" value="a" style="edgeLabel;html=1;align=center;verticalAlign=middle;resizable=0;points=[];fontSize=11;fontFamily=Helvetica;fontColor=#990099;" vertex="1" connectable="0" parent="RB9qQkZ6Mr-YbvBWjPKB-76">
          <mxGeometry x="0.0634" y="-1" relative="1" as="geometry">
            <mxPoint x="-7" y="-9" as="offset" />
          </mxGeometry>
        </mxCell>
        <mxCell id="RB9qQkZ6Mr-YbvBWjPKB-78" value="11" style="ellipse;whiteSpace=wrap;html=1;fontColor=#990099;strokeColor=#990099;strokeWidth=1;perimeterSpacing=0;" vertex="1" parent="1">
          <mxGeometry x="1785.0100000000002" y="143.75999999999954" width="30" height="30" as="geometry" />
        </mxCell>
        <mxCell id="RB9qQkZ6Mr-YbvBWjPKB-79" style="edgeStyle=none;shape=connector;rounded=0;orthogonalLoop=1;jettySize=auto;html=1;labelBackgroundColor=none;strokeColor=#990099;align=center;verticalAlign=middle;fontFamily=Helvetica;fontSize=11;fontColor=#990099;endArrow=blockThin;endFill=1;exitX=0;exitY=1;exitDx=0;exitDy=0;entryX=0;entryY=0;entryDx=0;entryDy=0;" edge="1" parent="1" source="RB9qQkZ6Mr-YbvBWjPKB-78" target="RB9qQkZ6Mr-YbvBWjPKB-81">
          <mxGeometry relative="1" as="geometry">
            <mxPoint x="1884.6166017177616" y="146.00339828223764" as="sourcePoint" />
          </mxGeometry>
        </mxCell>
        <mxCell id="RB9qQkZ6Mr-YbvBWjPKB-80" value="a" style="edgeLabel;html=1;align=center;verticalAlign=middle;resizable=0;points=[];fontSize=11;fontFamily=Helvetica;fontColor=#990099;" vertex="1" connectable="0" parent="RB9qQkZ6Mr-YbvBWjPKB-79">
          <mxGeometry x="0.0634" y="-1" relative="1" as="geometry">
            <mxPoint x="2" y="-8" as="offset" />
          </mxGeometry>
        </mxCell>
        <mxCell id="RB9qQkZ6Mr-YbvBWjPKB-81" value="12" style="ellipse;whiteSpace=wrap;html=1;fontColor=#990099;strokeColor=#990099;strokeWidth=1;perimeterSpacing=0;" vertex="1" parent="1">
          <mxGeometry x="1763" y="209.4499999999996" width="30" height="30" as="geometry" />
        </mxCell>
        <mxCell id="RB9qQkZ6Mr-YbvBWjPKB-82" style="edgeStyle=none;shape=connector;rounded=0;orthogonalLoop=1;jettySize=auto;html=1;labelBackgroundColor=none;strokeColor=#990099;align=center;verticalAlign=middle;fontFamily=Helvetica;fontSize=11;fontColor=#990099;endArrow=blockThin;endFill=1;exitX=0.5;exitY=1;exitDx=0;exitDy=0;entryX=1;entryY=0;entryDx=0;entryDy=0;" edge="1" parent="1" source="RB9qQkZ6Mr-YbvBWjPKB-78" target="RB9qQkZ6Mr-YbvBWjPKB-81">
          <mxGeometry relative="1" as="geometry">
            <mxPoint x="1884.6166017177616" y="167.2166017177608" as="sourcePoint" />
            <mxPoint x="1938.4000000000005" y="193.21999999999957" as="targetPoint" />
          </mxGeometry>
        </mxCell>
        <mxCell id="RB9qQkZ6Mr-YbvBWjPKB-83" value="b" style="edgeLabel;html=1;align=center;verticalAlign=middle;resizable=0;points=[];fontSize=11;fontFamily=Helvetica;fontColor=#990099;labelBackgroundColor=none;" vertex="1" connectable="0" parent="RB9qQkZ6Mr-YbvBWjPKB-82">
          <mxGeometry x="0.0634" y="-1" relative="1" as="geometry">
            <mxPoint x="-2" y="-8" as="offset" />
          </mxGeometry>
        </mxCell>
        <mxCell id="RB9qQkZ6Mr-YbvBWjPKB-84" style="edgeStyle=none;shape=connector;rounded=0;orthogonalLoop=1;jettySize=auto;html=1;labelBackgroundColor=none;strokeColor=#990099;align=center;verticalAlign=middle;fontFamily=Helvetica;fontSize=11;fontColor=#990099;endArrow=blockThin;endFill=1;" edge="1" parent="1" source="RB9qQkZ6Mr-YbvBWjPKB-81" target="RB9qQkZ6Mr-YbvBWjPKB-96">
          <mxGeometry relative="1" as="geometry">
            <mxPoint x="1837.9765429275194" y="197.98917303874282" as="sourcePoint" />
            <mxPoint x="1881.893773567219" y="139.38125860061768" as="targetPoint" />
          </mxGeometry>
        </mxCell>
        <mxCell id="RB9qQkZ6Mr-YbvBWjPKB-85" value="a" style="edgeLabel;html=1;align=center;verticalAlign=middle;resizable=0;points=[];fontSize=11;fontFamily=Helvetica;fontColor=#990099;" vertex="1" connectable="0" parent="RB9qQkZ6Mr-YbvBWjPKB-84">
          <mxGeometry x="-0.107" y="2" relative="1" as="geometry">
            <mxPoint x="3" y="-3" as="offset" />
          </mxGeometry>
        </mxCell>
        <mxCell id="RB9qQkZ6Mr-YbvBWjPKB-86" style="edgeStyle=none;shape=connector;rounded=0;orthogonalLoop=1;jettySize=auto;html=1;labelBackgroundColor=none;strokeColor=#990099;align=center;verticalAlign=middle;fontFamily=Helvetica;fontSize=11;fontColor=#990099;endArrow=blockThin;endFill=1;" edge="1" parent="1" source="RB9qQkZ6Mr-YbvBWjPKB-96" target="RB9qQkZ6Mr-YbvBWjPKB-96">
          <mxGeometry relative="1" as="geometry">
            <mxPoint x="1770.2533159107475" y="295.60948567789933" as="sourcePoint" />
            <mxPoint x="1783.4753587933478" y="294.52330129063125" as="targetPoint" />
            <Array as="points">
              <mxPoint x="1738" y="299.45000000000005" />
              <mxPoint x="1756" y="315.45000000000005" />
            </Array>
          </mxGeometry>
        </mxCell>
        <mxCell id="RB9qQkZ6Mr-YbvBWjPKB-87" value="a" style="edgeLabel;html=1;align=center;verticalAlign=middle;resizable=0;points=[];fontSize=11;fontFamily=Helvetica;fontColor=#990099;" vertex="1" connectable="0" parent="RB9qQkZ6Mr-YbvBWjPKB-86">
          <mxGeometry x="-0.107" y="2" relative="1" as="geometry">
            <mxPoint x="9" y="-1" as="offset" />
          </mxGeometry>
        </mxCell>
        <mxCell id="RB9qQkZ6Mr-YbvBWjPKB-88" style="edgeStyle=none;shape=connector;rounded=0;orthogonalLoop=1;jettySize=auto;html=1;labelBackgroundColor=none;strokeColor=#990099;align=center;verticalAlign=middle;fontFamily=Helvetica;fontSize=11;fontColor=#990099;endArrow=blockThin;endFill=1;entryX=0.5;entryY=0;entryDx=0;entryDy=0;exitX=1;exitY=0.5;exitDx=0;exitDy=0;" edge="1" parent="1" source="RB9qQkZ6Mr-YbvBWjPKB-78" target="RB9qQkZ6Mr-YbvBWjPKB-90">
          <mxGeometry relative="1" as="geometry">
            <mxPoint x="1817.0100000000002" y="134.4799999999998" as="sourcePoint" />
            <mxPoint x="1899.3700000000135" y="147.3900000000001" as="targetPoint" />
          </mxGeometry>
        </mxCell>
        <mxCell id="RB9qQkZ6Mr-YbvBWjPKB-89" value="a" style="edgeLabel;html=1;align=center;verticalAlign=middle;resizable=0;points=[];fontSize=11;fontFamily=Helvetica;fontColor=#990099;labelBackgroundColor=none;" vertex="1" connectable="0" parent="RB9qQkZ6Mr-YbvBWjPKB-88">
          <mxGeometry x="0.0634" y="-1" relative="1" as="geometry">
            <mxPoint x="7" y="-7" as="offset" />
          </mxGeometry>
        </mxCell>
        <mxCell id="RB9qQkZ6Mr-YbvBWjPKB-90" value="13" style="ellipse;whiteSpace=wrap;html=1;fontColor=#990099;strokeColor=#990099;strokeWidth=1;perimeterSpacing=0;" vertex="1" parent="1">
          <mxGeometry x="1820.0100000000002" y="206.45000000000005" width="30" height="30" as="geometry" />
        </mxCell>
        <mxCell id="RB9qQkZ6Mr-YbvBWjPKB-91" style="edgeStyle=none;shape=connector;rounded=0;orthogonalLoop=1;jettySize=auto;html=1;labelBackgroundColor=none;strokeColor=#990099;align=center;verticalAlign=middle;fontFamily=Helvetica;fontSize=11;fontColor=#990099;endArrow=blockThin;endFill=1;exitX=0.5;exitY=1;exitDx=0;exitDy=0;entryX=0;entryY=0.5;entryDx=0;entryDy=0;" edge="1" parent="1" source="RB9qQkZ6Mr-YbvBWjPKB-78" target="RB9qQkZ6Mr-YbvBWjPKB-90">
          <mxGeometry relative="1" as="geometry">
            <mxPoint x="1832.0066017177887" y="154.47660171778875" as="sourcePoint" />
            <mxPoint x="1930.293398282211" y="154.47660171778966" as="targetPoint" />
          </mxGeometry>
        </mxCell>
        <mxCell id="RB9qQkZ6Mr-YbvBWjPKB-92" value="b" style="edgeLabel;html=1;align=center;verticalAlign=middle;resizable=0;points=[];fontSize=11;fontFamily=Helvetica;fontColor=#990099;labelBackgroundColor=none;" vertex="1" connectable="0" parent="RB9qQkZ6Mr-YbvBWjPKB-91">
          <mxGeometry x="0.0634" y="-1" relative="1" as="geometry">
            <mxPoint x="3" y="-7" as="offset" />
          </mxGeometry>
        </mxCell>
        <mxCell id="RB9qQkZ6Mr-YbvBWjPKB-93" style="edgeStyle=none;shape=connector;rounded=0;orthogonalLoop=1;jettySize=auto;html=1;labelBackgroundColor=none;strokeColor=#990099;align=center;verticalAlign=middle;fontFamily=Helvetica;fontSize=11;fontColor=#990099;endArrow=blockThin;endFill=1;" edge="1" parent="1" source="RB9qQkZ6Mr-YbvBWjPKB-90" target="RB9qQkZ6Mr-YbvBWjPKB-96">
          <mxGeometry relative="1" as="geometry">
            <mxPoint x="1971.0100000000211" y="242.76000000000045" as="sourcePoint" />
            <mxPoint x="1895.6034213156677" y="147.13774525548183" as="targetPoint" />
          </mxGeometry>
        </mxCell>
        <mxCell id="RB9qQkZ6Mr-YbvBWjPKB-94" value="b" style="edgeLabel;html=1;align=center;verticalAlign=middle;resizable=0;points=[];fontSize=11;fontFamily=Helvetica;fontColor=#990099;labelBackgroundColor=none;" vertex="1" connectable="0" parent="RB9qQkZ6Mr-YbvBWjPKB-93">
          <mxGeometry x="-0.107" y="2" relative="1" as="geometry">
            <mxPoint x="6" y="2" as="offset" />
          </mxGeometry>
        </mxCell>
        <mxCell id="RB9qQkZ6Mr-YbvBWjPKB-95" value="1" style="ellipse;whiteSpace=wrap;html=1;fontColor=#990099;strokeColor=#990099;" vertex="1" parent="1">
          <mxGeometry x="1626.500000000001" y="264.51999999999975" width="30" height="30" as="geometry" />
        </mxCell>
        <mxCell id="RB9qQkZ6Mr-YbvBWjPKB-96" value="2" style="ellipse;whiteSpace=wrap;html=1;fontColor=#990099;strokeColor=#990099;" vertex="1" parent="1">
          <mxGeometry x="1762.8700000000003" y="264.51999999999975" width="30" height="30" as="geometry" />
        </mxCell>
        <mxCell id="RB9qQkZ6Mr-YbvBWjPKB-97" style="edgeStyle=none;shape=connector;rounded=0;orthogonalLoop=1;jettySize=auto;html=1;labelBackgroundColor=none;strokeColor=#990099;align=center;verticalAlign=middle;fontFamily=Helvetica;fontSize=11;fontColor=#990099;endArrow=blockThin;endFill=1;" edge="1" parent="1" source="RB9qQkZ6Mr-YbvBWjPKB-95" target="RB9qQkZ6Mr-YbvBWjPKB-96">
          <mxGeometry relative="1" as="geometry">
            <mxPoint x="1725.8700000000003" y="321.2999999999995" as="sourcePoint" />
            <mxPoint x="1762.8700000000003" y="321.2999999999995" as="targetPoint" />
          </mxGeometry>
        </mxCell>
        <mxCell id="RB9qQkZ6Mr-YbvBWjPKB-98" value="ε" style="edgeLabel;html=1;align=center;verticalAlign=middle;resizable=0;points=[];fontSize=11;fontFamily=Helvetica;fontColor=#990099;" vertex="1" connectable="0" parent="RB9qQkZ6Mr-YbvBWjPKB-97">
          <mxGeometry x="-0.182" y="1" relative="1" as="geometry">
            <mxPoint x="3" y="-6" as="offset" />
          </mxGeometry>
        </mxCell>
        <mxCell id="RB9qQkZ6Mr-YbvBWjPKB-99" style="edgeStyle=none;shape=connector;rounded=0;orthogonalLoop=1;jettySize=auto;html=1;labelBackgroundColor=none;strokeColor=#990099;align=center;verticalAlign=middle;fontFamily=Helvetica;fontSize=11;fontColor=#990099;endArrow=blockThin;endFill=1;" edge="1" parent="1" target="RB9qQkZ6Mr-YbvBWjPKB-95">
          <mxGeometry relative="1" as="geometry">
            <mxPoint x="1607" y="280.45000000000005" as="sourcePoint" />
            <mxPoint x="1708.3800000000006" y="279.3499999999997" as="targetPoint" />
          </mxGeometry>
        </mxCell>
      </root>
    </mxGraphModel>
  </diagram>
</mxfile>
